<svg xmlns="http://www.w3.org/2000/svg" width="256" height="214.779" viewBox="0 0 256 214.779"><path d="M38.665,174.2V157.819a3.577,3.577,0,0,1,3.574-3.882h.617a3.573,3.573,0,0,1,3.567,3.882v34.49c0,8.411-4.155,15.1-11.4,19.366a21.4,21.4,0,0,1-10.959,2.989H22.53c-8.413,0-15.1-4.158-19.366-11.394A21.341,21.341,0,0,1,.176,192.309v-1.537c0-8.414,4.157-15.1,11.392-19.373a21.325,21.325,0,0,1,10.962-2.989h1.539a21.654,21.654,0,0,1,14.6,5.791ZM7.934,191.539c0,6.076,2.945,10.643,8.268,13.557a14.352,14.352,0,0,0,6.946,1.81c5.963,0,10.387-2.814,13.438-7.867a14.556,14.556,0,0,0,2.08-7.658c0-5.267-2.493-9.377-6.737-12.43a14.478,14.478,0,0,0-8.629-2.778c-6.5,0-11.178,3.284-13.985,9.117a14.25,14.25,0,0,0-1.38,6.248Zm65.406-23.129h1.075c8.989,0,15.826,4.36,20.158,12.207a20.857,20.857,0,0,1,2.659,10.155v1.537c0,8.411-4.147,15.112-11.4,19.367a21.452,21.452,0,0,1-10.957,2.988H73.339c-8.413,0-15.1-4.158-19.366-11.394a21.343,21.343,0,0,1-2.991-10.961v-1.537c0-8.415,4.174-15.081,11.391-19.371a21.228,21.228,0,0,1,10.966-2.991Zm-14.6,23.129c0,5.9,2.894,10.236,7.875,13.287a14.379,14.379,0,0,0,7.648,2.081c5.827,0,10.135-2.955,13.132-7.873a14.427,14.427,0,0,0,2.077-7.652c0-5.484-2.641-9.673-7.157-12.709a14.429,14.429,0,0,0-8.208-2.5c-6.5,0-11.178,3.284-13.984,9.117a14.224,14.224,0,0,0-1.382,6.248Zm70.744-14.745a14.521,14.521,0,0,0-4.63-.779c-6.482-.244-11.172,3.406-13.923,9.124a14.187,14.187,0,0,0-1.384,6.243c0,6.645,3.489,11.3,9.421,14.135a17.674,17.674,0,0,0,7.332,1.232c2.083,0,5.026-1.276,6.875-2.154l.32-.152h1.435l.158.032c1.764.367,3.1,1.486,3.1,3.384v.768c0,4.724-8.633,5.805-11.927,6.036-11.625.8-20.318-5.58-23.633-16.668a20.091,20.091,0,0,1-.835-5.844v-1.535c0-8.413,4.175-15.078,11.391-19.364a21.236,21.236,0,0,1,10.964-2.994h1.538a19.755,19.755,0,0,1,11.358,3.506l.28.194.177.292a4.086,4.086,0,0,1,.686,2.045v.768c0,1.98-1.482,3.046-3.27,3.39l-.148.026h-.459c-1.157,0-3.79-1.2-4.823-1.685Zm25.165,5.254c3.014-3.018,6.038-6.03,9.1-9,.852-.828,4.079-4.332,5.35-4.332h1.39l.158.033c1.77.367,3.1,1.488,3.1,3.39v.767c0,1.3-1.52,2.806-2.358,3.694-1.782,1.889-3.659,3.717-5.483,5.567l-9.374,9.516q6.054,6.068,12.071,12.169,1.665,1.688,3.305,3.4a8.5,8.5,0,0,1,1.278,1.472,3.178,3.178,0,0,1,.561,1.754v.8l-.045.185c-.436,1.77-1.559,3.2-3.52,3.2h-.618c-1.284,0-2.733-1.452-3.613-2.282-1.812-1.708-3.561-3.5-5.338-5.25l-5.956-5.847v9.346a3.579,3.579,0,0,1-3.573,3.883h-.611a3.578,3.578,0,0,1-3.574-3.883V157.969a3.572,3.572,0,0,1,3.574-3.875h.611a3.572,3.572,0,0,1,3.573,3.875v24.078Zm96.7-13.33h.771A3.675,3.675,0,0,1,256,172.6c0,3.212-3.071,4.034-5.727,4.034-3.484,0-6.812,2.11-9.214,4.476A14.77,14.77,0,0,0,236.754,192v18.782a3.576,3.576,0,0,1-3.574,3.881h-.613a3.574,3.574,0,0,1-3.573-3.881V190.923c0-7.627,3.713-13.852,9.9-18.219a21.337,21.337,0,0,1,12.454-3.985ZM196.206,205.94a18.152,18.152,0,0,0,8.939.34c1.482-.63,5.271-2.283,6.664-2.041l.217.037.2.1a4.375,4.375,0,0,1,2.1,1.862,3.717,3.717,0,0,1-1.467,5.223l-.664.383c-7.359,4.247-15.187,3.659-22.523-.308a20.884,20.884,0,0,1-8.17-8.142l-.463-.8c-4.725-8.182-4.087-16.789,1.242-24.57a21.234,21.234,0,0,1,7.054-6.392l1.063-.614c6.931-4,14.359-3.727,21.477-.215a21.009,21.009,0,0,1,9.065,8.4l.384.667c1.552,2.689-.459,5.032-2.534,6.634-2.409,1.858-4.841,4.1-7.15,6.088q-7.723,6.667-15.433,13.347Zm-6.663-4.68q8.636-7.4,17.259-14.835c1.962-1.692,4.114-3.448,6.061-5.228a15.332,15.332,0,0,0-6.388-4.233,14.645,14.645,0,0,0-12.992,1.237c-5.372,3.1-7.66,8.041-7.459,14.188a13.618,13.618,0,0,0,2.016,6.814A17.938,17.938,0,0,0,189.543,201.261ZM147.672,45.789h22.895v23.4h11.575a50.2,50.2,0,0,0,15.907-2.667,40.737,40.737,0,0,0,7.734-3.494,28.7,28.7,0,0,1-5.367-14.8c-.661-7.144.781-16.442,5.615-22.033l2.407-2.783,2.868,2.306c7.22,5.8,13.293,13.906,14.363,23.147,8.694-2.557,18.9-1.952,26.564,2.47l3.144,1.814-1.654,3.23c-6.481,12.648-20.031,16.567-33.278,15.873C200.624,121.628,157.469,145,105.144,145c-27.034,0-51.835-10.106-65.958-34.09l-.231-.39L36.9,106.334a66.4,66.4,0,0,1-5.285-33.679l.323-3.461H51.514v-23.4H74.408V22.895H120.2V0h27.474V45.789" transform="translate(0)" fill="#364548" fill-rule="evenodd"/><path d="M221.8,54.412c1.535-11.931-7.393-21.3-12.93-25.751-6.381,7.377-7.372,26.711,2.638,34.852-5.587,4.962-17.359,9.46-29.413,9.46H35.37a61.832,61.832,0,0,0,6.083,34.088l1.669,3.054a56.608,56.608,0,0,0,3.459,5.19q9.049.581,16.683.409h0c10-.22,18.159-1.4,24.342-3.544a1.763,1.763,0,0,1,1.154,3.33c-.823.286-1.68.553-2.565.806h0a76.543,76.543,0,0,1-16.827,2.741c.4.007-.417.06-.419.06-.229.015-.518.048-.748.06-2.651.149-5.513.18-8.439.18-3.2,0-6.351-.06-9.874-.24l-.09.06c12.225,13.741,31.341,21.982,55.3,21.982,50.711,0,93.725-22.48,112.773-72.948,13.513,1.387,26.5-2.06,32.408-13.592-9.41-5.43-21.511-3.7-28.479-.2" transform="translate(0.044 0.036)" fill="#22a0c8" fill-rule="evenodd"/><path d="M221.792,54.412c1.535-11.931-7.393-21.3-12.93-25.751-6.381,7.377-7.372,26.711,2.638,34.852-5.587,4.962-17.359,9.46-29.413,9.46H44.048c-.6,19.27,6.552,33.9,19.2,42.74h0c10-.22,18.159-1.4,24.342-3.544a1.763,1.763,0,0,1,1.154,3.33c-.823.286-1.68.553-2.565.806h0a80.477,80.477,0,0,1-17.276,2.862s-.163-.155-.165-.155c17.259,8.853,42.283,8.821,70.974-2.2,32.17-12.359,62.107-35.9,82.994-62.836q-.472.213-.918.437" transform="translate(0.055 0.036)" fill="#37b1d9" fill-rule="evenodd"/><path d="M35.645,88.186a58.647,58.647,0,0,0,5.807,18.8l1.669,3.054a56.5,56.5,0,0,0,3.459,5.191q9.05.581,16.685.408c10-.22,18.159-1.4,24.342-3.544a1.763,1.763,0,0,1,1.154,3.33c-.823.286-1.68.553-2.565.806h0a80.5,80.5,0,0,1-17.246,2.8c-.231.014-.635.017-.868.03-2.649.148-5.482.239-8.409.239-3.2,0-6.471-.061-9.992-.24C61.9,132.8,81.139,141.074,105.1,141.074c43.414,0,81.185-16.479,103.108-52.888H35.645" transform="translate(0.045 0.11)" fill="#1b81a5" fill-rule="evenodd"/><path d="M45.367,88.186c2.6,11.835,8.832,21.125,17.886,27.452,10-.22,18.159-1.4,24.342-3.544a1.763,1.763,0,0,1,1.154,3.33c-.823.286-1.68.553-2.565.806h0a81.707,81.707,0,0,1-17.366,2.8c17.258,8.851,42.21,8.724,70.9-2.3A187.379,187.379,0,0,0,188.76,88.186H45.367" transform="translate(0.057 0.11)" fill="#1d91b4" fill-rule="evenodd"/><path d="M55.26,49.572H75.1V69.414H55.26Zm1.653,1.654h1.566V67.761H56.913Zm2.944,0h1.629V67.761H59.858V51.226Zm3.006,0h1.629V67.761H62.862Zm3.008,0H67.5V67.761H65.87Zm3.007,0h1.628V67.761H68.877V51.226Zm3.006,0H73.45V67.761H71.883Zm6.272-24.549H98V46.519H78.154V26.677Zm1.654,1.654h1.565V44.866H79.809Zm2.944,0H84.38V44.866H82.753V28.331Zm3.006,0h1.628V44.866H85.758Zm3.007,0h1.628V44.866H88.765Zm3.007,0H93.4V44.866H91.772Zm3.006,0h1.568V44.866H94.777Z" transform="translate(0.069 0.033)" fill="#23a3c2" fill-rule="evenodd"/><path d="M78.126,49.543H97.97V69.386H78.125V49.543ZM79.78,51.2h1.565V67.733H79.78Zm2.944,0h1.628V67.733H82.725V51.2Zm3.006,0h1.628V67.733H85.73Zm3.007,0h1.628V67.733H88.736Zm3.007,0h1.629V67.733H91.743Zm3.006,0h1.568V67.733H94.749Z" transform="translate(0.098 0.062)" fill="#34bbde" fill-rule="evenodd"/><path d="M100.993,49.543h19.843V69.386H100.993Zm1.653,1.654h1.565V67.733h-1.565Zm2.944,0h1.628V67.733H105.59Zm3.007,0h1.628V67.733H108.6Zm3.007,0h1.628V67.733H111.6Zm3.006,0h1.63V67.733h-1.63Zm3.007,0h1.566V67.733h-1.566Z" transform="translate(0.126 0.062)" fill="#23a3c2" fill-rule="evenodd"/><path d="M100.993,26.677h19.843V46.519H100.993Zm1.653,1.654h1.565V44.866h-1.565Zm2.944,0h1.628V44.866H105.59Zm3.007,0h1.628V44.866H108.6Zm3.007,0h1.628V44.866H111.6Zm3.006,0h1.63V44.866h-1.63Zm3.007,0h1.566V44.866h-1.566Zm6.272,21.241H143.73V69.414H123.888Zm1.654,1.654h1.565V67.761h-1.565Zm2.944,0h1.628V67.761h-1.628Zm3.006,0h1.628V67.761h-1.628Zm3.007,0h1.629V67.761H134.5Zm3.007,0h1.629V67.761H137.5Zm3.007,0h1.566V67.761h-1.566Z" transform="translate(0.126 0.033)" fill="#34bbde" fill-rule="evenodd"/><path d="M123.859,26.677H143.7V46.519H123.859Zm1.654,1.654h1.565V44.866h-1.565Zm2.944,0h1.628V44.866h-1.628Zm3.006,0h1.628V44.866h-1.628Zm3.007,0H136.1V44.866h-1.629Zm3.007,0h1.629V44.866h-1.629Zm3.007,0h1.566V44.866h-1.566Z" transform="translate(0.155 0.033)" fill="#23a3c2" fill-rule="evenodd"/><path d="M123.859,3.81H143.7V23.655H123.859Zm1.654,1.653h1.565V22h-1.565V5.462Zm2.944,0h1.628V22h-1.628V5.462Zm3.006,0h1.628V22h-1.628V5.462Zm3.007,0H136.1V22h-1.629V5.462Zm3.007,0h1.629V22h-1.629V5.462Zm3.007,0h1.566V22h-1.566V5.462Z" transform="translate(0.155 0.005)" fill="#34bbde" fill-rule="evenodd"/><path d="M146.725,49.543h19.843V69.386H146.725Zm1.652,1.654h1.567V67.733h-1.566V51.2Zm2.944,0h1.629V67.733h-1.628V51.2Zm3.008,0h1.629V67.733h-1.629Zm3.006,0h1.629V67.733h-1.629Zm3.008,0h1.628V67.733h-1.628Zm3.006,0h1.566V67.733h-1.566Z" transform="translate(0.184 0.062)" fill="#23a3c2" fill-rule="evenodd"/><path d="M96.711,101.492a5.475,5.475,0,1,1-5.475,5.475,5.474,5.474,0,0,1,5.475-5.475" transform="translate(0.114 0.127)" fill="#d3ecec" fill-rule="evenodd"/><path d="M96.825,103.072a3.905,3.905,0,0,1,1.419.265,1.6,1.6,0,1,0,2.2,2.152,3.92,3.92,0,1,1-3.622-2.417M0,90.175H254.645C249.1,88.769,237.1,86.869,239.082,79.6c-10.083,11.667-34.4,8.185-40.533,2.433-6.833,9.91-46.612,6.143-49.387-1.578-8.567,10.054-35.111,10.054-43.678,0C102.708,88.178,62.93,91.945,56.1,82.034,49.96,87.787,25.648,91.269,15.565,79.6,17.544,86.869,5.546,88.769,0,90.176" transform="translate(0 0.1)" fill="#364548" fill-rule="evenodd"/><path d="M111.315,140.921c-13.557-6.433-21-15.179-25.137-24.725a83.981,83.981,0,0,1-18.123,2.75q-3.974.222-8.36.224-5.058,0-10.656-.3c12.433,12.426,27.727,21.991,56.046,22.166q3.136,0,6.231-.118" transform="translate(0.061 0.145)" fill="#bdd9d7" fill-rule="evenodd"/><path d="M91.189,125.005a47.521,47.521,0,0,1-5.032-8.811,83.925,83.925,0,0,1-18.126,2.753c4.832,2.622,11.742,5.052,23.159,6.058" transform="translate(0.085 0.145)" fill="#d3ecec" fill-rule="evenodd"/></svg>