<svg xmlns="http://www.w3.org/2000/svg" xmlns:xlink="http://www.w3.org/1999/xlink" width="255.719" height="255.5" viewBox="0 0 255.719 255.5"><defs><linearGradient id="a" x1="0.697" y1="0.038" x2="0.144" y2="1.036" gradientUnits="objectBoundingBox"><stop offset="0" stop-color="#78c4ff"/><stop offset="1" stop-color="#d7aeff"/></linearGradient><linearGradient id="b" x1="0.672" y1="0.021" x2="0.422" y2="1.063" gradientUnits="objectBoundingBox"><stop offset="0" stop-color="#1a6cff"/><stop offset="1" stop-color="#c522ff"/></linearGradient></defs><g transform="translate(-32.12 -42.039)"><g transform="translate(32.12 42.039)"><path d="M68.972,180.619c-.225-.525-.909-2.171-1.518-3.658s-1.271-3.07-1.469-3.519l-.807-1.821c-.245-.553-.572-1.3-.727-1.659-.855-1.98-1.147-2.627-2.886-6.384-.94-2.032-4.177-8.488-5.361-10.693a5.964,5.964,0,0,1-.678-1.516c.054-.04,1.409-.507,3.013-1.039a38.847,38.847,0,0,0,9.519-4.544,39.581,39.581,0,0,0,13.9-16.992c.351-.818.393-.924,1.008-2.513.192-.5.425-1.086.517-1.307s.3-.809.46-1.307.4-1.176.538-1.508l.409-1.005c.09-.221.492-1.4.893-2.614s.937-2.8,1.192-3.519.8-2.393,1.215-3.72.822-2.594.908-2.815c.175-.451,1.014-3.141,1.411-4.524.143-.5.46-1.538.705-2.312s.557-1.815.694-2.312.364-1.267.5-1.709.354-1.166.475-1.609.457-1.619.745-2.614.618-2.171.733-2.614.282-1.03.371-1.307c.166-.516.66-2.29,1.037-3.72.2-.744.333-1.242.941-3.418.124-.442.452-1.664.729-2.714.84-3.178.925-3.5,1.11-4.122.1-.332.508-1.87.913-3.418s.822-3.132.928-3.519.245-.93.307-1.206.382-1.543.71-2.815.674-2.674.769-3.116.322-1.347.506-2.011c.32-1.156.483-1.811.861-3.468.164-.72.42-1.733.824-3.267.1-.387.278-1.111.391-1.609s.435-1.877.716-3.066.739-3.134,1.018-4.323.6-2.439.7-2.779a4.205,4.205,0,0,0,.2-.991,4.352,4.352,0,0,1,.19-.991c.2-.644.642-2.515,1.005-4.237.214-1.013,1.084-4.942,1.425-6.434.1-.442.412-1.935.692-3.318s.6-2.92.7-3.418.376-1.764.6-2.815c.609-2.872,1.084-4.191,1.629-4.529.371-.229,1.106.435,1.484,1.34a25.042,25.042,0,0,1,1.639,5.2c.379,1.493.774,3.031.878,3.418s.281,1.111.394,1.609.44,1.9.727,3.117.6,2.574.7,3.016c.451,2.035.844,3.671,1.018,4.237a4.357,4.357,0,0,1,.19.991,4.355,4.355,0,0,0,.19.991c.1.34.335,1.251.513,2.025s.4,1.724.5,2.111c.148.6.582,2.484,1.415,6.132.1.442.418,1.8.705,3.016s.6,2.574.7,3.016.417,1.8.7,3.016.6,2.574.7,3.016c.181.818.7,3.046,1,4.323.092.387.405,1.744.7,3.016s.612,2.674.714,3.117.327,1.438.5,2.212c.457,2.039.709,3.123.911,3.921.1.387.412,1.744.7,3.016.835,3.718,1.214,5.368,1.708,7.439.092.387.405,1.744.7,3.016s.612,2.674.714,3.116.328,1.438.5,2.212.4,1.792.511,2.262.281,1.239.385,1.709c.22.994.769,3.356,1.016,4.373.187.77.849,3.716,1.333,5.931.169.774.384,1.724.479,2.111.22.9.775,3.286,1.007,4.323l.5,2.212c.174.774.4,1.769.5,2.212s.292,1.3.422,1.91.314,1.365.41,1.682a1.349,1.349,0,0,1,.064.754,2.757,2.757,0,0,1-1.254.182,46.511,46.511,0,0,0-6.509.983,40.238,40.238,0,0,0-7.2,2.618,54.228,54.228,0,0,0-11.058,7.551c-1.871,1.608-6.625,6.363-9.35,9.351l-2.3,2.516c-.506.554-1.507,1.685-2.224,2.513s-1.351,1.55-1.409,1.606-.6.689-1.209,1.407-1.153,1.352-1.214,1.407-1.007,1.141-2.1,2.413-2.043,2.357-2.1,2.413-.607.689-1.214,1.407-1.149,1.352-1.205,1.407-.916,1.005-1.911,2.111c-2.66,2.957-7.744,7.982-10.171,10.053-2.079,1.775-2.582,2.18-4.406,3.551a32.069,32.069,0,0,1-4.419,2.783c-.121,0-.4-.43-.629-.955Z" transform="translate(33.204 0.792)" fill="url(#a)"/><path d="M136.517,109.125c.94-1.517,1.806-2.942,1.924-3.165s.458-.789.754-1.256a6.353,6.353,0,0,0,.539-.953,14.471,14.471,0,0,1,.868-1.462c.477-.748,1.257-2.083,1.732-2.968s.935-1.7,1.021-1.81c.182-.234.75-1.242,1.813-3.217.416-.774,1.131-2.086,1.587-2.915,1.428-2.6,9.064-18.061,9.064-18.359,0-.052.452-1.055,1.005-2.23s1.005-2.178,1.005-2.228.231-.615.514-1.254.59-1.343.683-1.564.32-.745.5-1.165c1.01-2.3,2.922-7.079,2.922-7.312,0-.519-.309-.25-1.182,1.032-.484.711-1.027,1.455-1.206,1.654s-.592.724-.918,1.166-.645.849-.71.9-.808.915-1.652,1.91c-3.1,3.652-8.858,8.947-11.055,10.163a50.373,50.373,0,0,1-5.494,2.406c-.473.187-2.556.99-4.474,1.723a33.5,33.5,0,0,0-11.473,7.609,90.911,90.911,0,0,0-6.78,7.455c-.439.553-.843,1.051-.9,1.106a12.569,12.569,0,0,0-1.911,2.813c.133.216,2.806,2.281,4.927,3.808.829.6,1.553,1.141,1.609,1.21s.6.482,1.206.919,1.2.866,1.307.954c.324.257,2.394,1.821,2.99,2.259.3.221,2.058,1.548,3.906,2.949a25.746,25.746,0,0,0,3.761,2.562c.306.011.813-.648,2.111-2.744ZM95.33,151.751a5.154,5.154,0,0,0,1.141-.7.29.29,0,0,1,.247-.153,76.315,76.315,0,0,0,7.534-5.083c.217-.181,1.112-.878,1.989-1.55a124.134,124.134,0,0,0,13.877-12.87c3.42-3.665,10.158-12.2,10.16-12.868a41.372,41.372,0,0,0-4.772-3.863c-2.625-1.959-5-3.74-5.276-3.958s-2.868-2.167-5.76-4.331c-5.234-3.917-5.97-4.336-6.616-3.765a4.167,4.167,0,0,1-.895.432c-.943.353-1.72.675-2.863,1.185a8.01,8.01,0,0,1-1.075.426,4.767,4.767,0,0,0-.806.3l-1.368.6a4.763,4.763,0,0,1-.806.3,8.054,8.054,0,0,0-1.075.422c-.971.43-1.151.507-2.561,1.089-.442.183-.961.415-1.153.516a1.579,1.579,0,0,1-.547.184,8.2,8.2,0,0,0-1.36.523c-.639.288-1.343.6-1.564.687-9.721,3.958-19.554,8-20.363,8.363a7.119,7.119,0,0,1-1.259.48,1.619,1.619,0,0,0-.547.178c-.192.1-.575.273-.852.389-1.284.539-2.148.9-2.564,1.063-.884.353-2.6,1.075-3.6,1.511a4.256,4.256,0,0,1-.756.278,8.02,8.02,0,0,0-1.075.426,15.616,15.616,0,0,1-2.343.982,8.1,8.1,0,0,0-1.075.418c-.524.23-1.247.545-1.606.7s-.65.351-.647.436a25.426,25.426,0,0,0,2.741,2.064c1.5,1.051,2.917,2.068,3.141,2.262a1.622,1.622,0,0,0,.539.352,1.523,1.523,0,0,1,.522.358c.214.2,1.792,1.358,3.506,2.58,7.368,5.253,12.471,8.926,13.17,9.481.111.088,1.774,1.276,3.7,2.642s3.642,2.6,3.82,2.754c1.194,1,7.424,5.289,7.695,5.3a5.044,5.044,0,0,0,1.407-.541ZM144.1,203.958a38.264,38.264,0,0,0,6.759-3.237c.866-.532,1.618-.968,1.673-.968.134,0,3.329-2.277,4.583-3.267a139.1,139.1,0,0,0,16.935-16.639c2.623-3.007,3.827-4.4,5.4-6.233.994-1.161,1.9-2.212,2.008-2.334s.472-.532.8-.909c10.149-11.534,14.543-15.769,20.106-19.38A30.547,30.547,0,0,1,213,146.427a20.2,20.2,0,0,1,5.752-.441c3.933,0,4.154.032,7.339.912a19.367,19.367,0,0,1,2.714.978,47.921,47.921,0,0,1,8.406,4.728c.187.152,1.109.879,2.049,1.615,2,1.565,5.546,4.816,9.676,8.87,3.5,3.43,3.907,3.633,2.913,1.434-.911-2.015-1.285-2.877-2.028-4.68-.411-1-.911-2.171-1.111-2.614s-.879-2.071-1.509-3.619-1.362-3.292-1.628-3.876a7.087,7.087,0,0,1-.483-1.259,1.619,1.619,0,0,0-.178-.547c-.239-.469-.45-.984-1.426-3.466-.456-1.161-.907-2.292-1-2.513s-.374-.945-.622-1.609-.566-1.478-.706-1.81-.813-2.1-1.5-3.921-1.317-3.5-1.409-3.72-.408-1.081-.7-1.91-.611-1.689-.7-1.91-.411-1.081-.707-1.91c-1-2.8-1.552-4.321-1.715-4.725-.245-.6-.915-2.531-1.818-5.228-.444-1.327-.886-2.594-.981-2.815a6.2,6.2,0,0,1-.272-.8c-.054-.221-.564-1.714-1.133-3.318s-1.307-3.73-1.639-4.725-.683-1.991-.777-2.212a6.287,6.287,0,0,1-.271-.8c-.054-.221-.566-1.714-1.137-3.318s-1.206-3.413-1.411-4.021c-.37-1.1-1.87-5.357-2.9-8.244-.3-.829-.676-1.915-.842-2.413-.4-1.19-1.269-3.614-1.481-4.122-.092-.221-.329-.9-.527-1.508a7.047,7.047,0,0,0-.52-1.3,1.016,1.016,0,0,1-.161-.556,1.791,1.791,0,0,0-.189-.714c-.1-.192-.42-1.005-.7-1.807-1.132-3.2-1.56-4.391-1.722-4.775-.231-.55-1.114-3.017-1.475-4.122-.163-.5-.406-1.176-.541-1.508-.491-1.209-.5-1.225-2.739-7.339-.613-1.673-1.368-3.651-1.879-4.926-.089-.221-.274-.719-.413-1.106s-.363-.975-.5-1.307-.453-1.146-.7-1.81c-.587-1.558-.835-2.158-1.477-3.574a8.16,8.16,0,0,1-.527-1.36,1.579,1.579,0,0,0-.184-.547c-.1-.192-.319-.666-.483-1.053-3.424-8.06-6.807-14.19-9.218-16.7-1.958-2.039-3.146-2.674-4.968-2.657-2.831.027-5.07,2.519-8.447,9.4-.651,1.327-1.319,2.729-1.485,3.116s-.482,1.111-.7,1.609-.781,1.855-1.245,3.016-.919,2.292-1.01,2.513-.412,1.035-.712,1.81-.617,1.588-.7,1.81-.405,1.035-.707,1.81-.673,1.693-.824,2.041a4.289,4.289,0,0,0-.275.756,8.057,8.057,0,0,1-.422,1.075c-.232.524-.5,1.134-.592,1.355-.64,1.513-1.362,3.144-2.4,5.429-.3.664-1.249,2.926-2.1,5.027s-1.673,4.092-1.819,4.423-.6,1.418-1.011,2.413-.926,2.217-1.146,2.714-.519,1.176-.662,1.508-.528,1.191-.855,1.91-.8,1.759-1.041,2.312-.719,1.593-1.053,2.312C160.583,80.324,154.268,93,153.4,94.6c-.453.829-1.167,2.141-1.588,2.915-1.019,1.877-1.757,3.193-2.452,4.371a8.287,8.287,0,0,0-.575,1.076,9.993,9.993,0,0,1-.7,1.2,10.19,10.19,0,0,0-.7,1.2c0,.054-.452.821-1.005,1.7s-1.005,1.647-1.005,1.7-.633,1.1-1.407,2.323-1.407,2.272-1.407,2.325a9.152,9.152,0,0,1-1.257,1.864.3.3,0,0,0-.151.262c0,.417-4.57,7.206-7.424,11.029-1.91,2.558-1.894,2.539-3.567,4.526-.652.774-1.376,1.656-1.61,1.96-2.6,3.379-10.934,11.551-15.845,15.533-.545.442-1.309,1.088-1.7,1.434l-.7.63.918.418c2.405,1.1,6.2,4.548,8.748,7.952a88.439,88.439,0,0,1,4.986,7.461c.3.553.623,1.1.71,1.206.422.535,5.051,9.584,6.019,11.766.269.606.88,1.935,1.357,2.952s.868,1.894.868,1.949.345.85.767,1.769.889,1.987,1.038,2.374a4.288,4.288,0,0,0,.439.895.783.783,0,0,1,.169.447,6.747,6.747,0,0,0,.5,1.367l1.005,2.223a7.633,7.633,0,0,1,.5,1.31,1.619,1.619,0,0,0,.178.547c.174.342.253.525.935,2.159.494,1.184.568,1.365,1.737,4.272.789,1.961,1.162,2.663,1.415,2.664a7.582,7.582,0,0,0,1.508-.419Zm-5.261,8.344c-1.31-.479-1.743-1.024-2.707-3.4-.09-.221-.257-.628-.372-.9s-.455-1.136-.757-1.91-.673-1.693-.824-2.041a4.284,4.284,0,0,1-.275-.756,8.05,8.05,0,0,0-.422-1.075c-.232-.524-.5-1.134-.59-1.355l-.5-1.206c-.185-.442-.408-.985-.5-1.206-.177-.445-.714-1.736-1.046-2.513-.118-.276-.3-.729-.415-1.005-.438-1.094-.545-1.348-1.041-2.469-.283-.639-.514-1.2-.514-1.242s-.317-.765-.7-1.6-.7-1.563-.7-1.611-.372-.885-.826-1.859-1.094-2.359-1.422-3.078c-1.424-3.122-5.359-10.768-6.017-11.692a2.539,2.539,0,0,1-.381-.664,8.331,8.331,0,0,0-.7-1.23,9.722,9.722,0,0,1-.7-1.205.879.879,0,0,0-.218-.348c-.12-.134-.549-.753-.955-1.377-3.206-4.932-5.911-7.779-8.6-9.056a5.386,5.386,0,0,0-2.893-.447c-2.93.029-4.86.676-8.847,2.964a4.041,4.041,0,0,1-2.111.416c-1.631.013-1.2.255-7.236-4.1-2.066-1.493-4.012-2.9-4.323-3.117s-2.262-1.624-4.333-3.117-5.465-3.936-7.54-5.429-5.463-3.936-7.529-5.429-4.013-2.9-4.326-3.117-2.581-1.85-5.039-3.619-5.438-3.911-6.622-4.76c-2.607-1.868-3.08-2.534-3.072-4.322a3.048,3.048,0,0,1,1.422-2.848c.3-.212,3.033-1.4,6.074-2.641s5.918-2.431,6.392-2.644,1.244-.531,1.709-.707,1.323-.535,1.907-.8a7.106,7.106,0,0,1,1.259-.481,1.579,1.579,0,0,0,.547-.184c.192-.1.711-.334,1.153-.516l1.257-.52c.249-.1.656-.269.9-.368.415-.166,1.28-.524,2.564-1.063.276-.116.66-.291.852-.389a1.62,1.62,0,0,1,.547-.178,21.758,21.758,0,0,0,2.871-1.224,1.581,1.581,0,0,1,.547-.184,7.076,7.076,0,0,0,1.259-.484c.584-.266,5.314-2.22,10.511-4.342s9.721-3.976,10.053-4.12,1.1-.463,1.709-.708,1.583-.662,2.167-.926a7.125,7.125,0,0,1,1.259-.479,1.619,1.619,0,0,0,.547-.178c.192-.1.575-.273.852-.389,1.45-.608,2.15-.9,2.513-1.037a7.693,7.693,0,0,0,2.81-1.6,2.487,2.487,0,0,1,.463-.734c.194-.213.843-1.066,1.441-1.9a85.575,85.575,0,0,1,11.872-13.136c.939-.793,1.889-1.606,2.111-1.807s1.4-1.024,2.615-1.829a33.723,33.723,0,0,1,7.339-3.727c.387-.138.885-.322,1.106-.408.4-.156,1.847-.716,2.614-1.011a44.373,44.373,0,0,0,5.027-2.174c2.041-1.238,6.776-5.7,9.534-8.983,5.483-6.528,16.954-23.342,22.221-32.573.647-1.133,3.106-4.785,3.995-5.931a27.025,27.025,0,0,1,7.48-6.681,14.258,14.258,0,0,1,4.791-1.361,20.635,20.635,0,0,1,4.86.823,17.766,17.766,0,0,1,7.383,5.634,43.542,43.542,0,0,1,2.972,4.3,10.06,10.06,0,0,0,.666,1.152c.593.944,3.006,5.745,3.816,7.594.17.387.6,1.337.947,2.111.7,1.535,1.159,2.592,1.408,3.217.088.221.311.764.5,1.206l.5,1.206c.092.221.3.719.464,1.106s.815,2.061,1.448,3.72,1.264,3.287,1.4,3.619.364.92.5,1.307.324.885.412,1.106.274.719.412,1.106.368.975.509,1.307.391,1.01.554,1.508.406,1.176.541,1.508c.471,1.158.569,1.418,1.1,2.915.294.829.611,1.689.7,1.91.156.371.956,2.594,1.448,4.021.114.332.325.875.468,1.206s.491,1.282.774,2.111.884,2.549,1.337,3.82.958,2.719,1.123,3.217.376,1.086.47,1.307.322.855.508,1.407.415,1.186.508,1.407c.21.5,1.076,2.906,1.483,4.122.167.5.545,1.583.842,2.413,1.316,3.676,2.585,7.32,3.326,9.551.441,1.327.881,2.594.977,2.815a6.567,6.567,0,0,1,.279.8c.057.221.567,1.714,1.132,3.318s1.425,4.092,1.91,5.529,1.347,3.926,1.915,5.529,1.2,3.413,1.411,4.021c.51,1.5,1.885,5.341,2.264,6.334.169.442.639,1.709,1.044,2.815.7,1.919,1.167,3.143,1.523,4.021.09.221.676,1.759,1.3,3.418.969,2.566,2.3,5.963,2.906,7.439.091.221.413,1.035.715,1.81s.718,1.791.924,2.26a6.738,6.738,0,0,1,.375.975,4.763,4.763,0,0,0,.3.806l.6,1.368a4.766,4.766,0,0,1,.3.806,8.007,8.007,0,0,0,.426,1.075c.234.524.557,1.27.717,1.657s.388.93.506,1.206.284.684.368.9.3.764.489,1.206l.5,1.206c.092.221.366.855.609,1.407s.558,1.277.7,1.609.495,1.126.785,1.765a13.462,13.462,0,0,1,.527,1.256c0,.052.317.78.7,1.618s.7,1.56.7,1.6.259.649.577,1.343.781,1.714,1.032,2.267c1,2.215,2.644,5.748,3.782,8.143a4.506,4.506,0,0,1-.146,3.657,3.361,3.361,0,0,1-3.139,1.64c-1.114.006-1.337-.073-2.714-.964-4.146-2.679-9.838-7.471-16.271-13.7-4.016-3.887-6.364-6.072-7.55-7.022-.552-.442-1.048-.86-1.1-.928-.619-.76-7.34-5-7.923-5a.728.728,0,0,1-.431-.183,23.859,23.859,0,0,0-4.279-1.42,24.722,24.722,0,0,0-7.337.081c-6.762,1.4-12.524,5.548-21.761,15.678-1.1,1.206-2.091,2.292-2.2,2.413-.214.233-4.275,4.894-5.009,5.749-3.838,4.473-6.006,6.973-7.843,9.04-2.666,3-9.866,10.3-11.744,11.912-.737.631-1.611,1.382-1.943,1.67-1.006.871-4.821,3.841-5.446,4.24a5.856,5.856,0,0,0-.686.486,52.773,52.773,0,0,1-7.083,4.155,35.353,35.353,0,0,1-8.627,3.164c-2.432.59-2.593.6-3.683.2Z" transform="translate(-43.769 -12.16)" fill="url(#b)"/><path d="M45.312,86.581l.031-.543.468-.085c3.343-.611,4.748-1.582,5.6-3.87a43.926,43.926,0,0,0,1.207-7.849c.329-3.6.384-4.56.731-12.527.085-1.944.177-3.722.2-3.95s.079-1.351.112-2.495.105-2.54.159-3.1.1-2.073.1-3.354c0-5.373-.744-6.727-4.158-7.562-.6-.147-1.372-.3-1.715-.338-1.018-.115-1.109-.174-1.072-.69l.032-.442,5.619-.027,5.619-.027.349.755c.192.415.651,1.386,1.019,2.158s.847,1.778,1.062,2.235.649,1.37.964,2.027.758,1.593.987,2.079c.431.915,1.16,2.45,1.974,4.158.546,1.146,1.337,2.814,1.9,4,.655,1.389,1.292,2.729,2.068,4.351.407.85.739,1.556.739,1.571s.38.816.844,1.782,1,2.083,1.183,2.483c.415.89,1.094,2.324,1.821,3.846.91,1.906,1.562,3.281,1.993,4.205.836,1.791.933,1.98,1.012,1.98a2.8,2.8,0,0,0,.427-.754c.407-.887,1.077-2.313,1.96-4.171.349-.736.635-1.352.635-1.369s.321-.7.714-1.521.832-1.747.976-2.062c.276-.6.974-2.087,1.637-3.482.217-.457.592-1.253.834-1.767,1.294-2.756,1.8-3.835,2.594-5.51.3-.629.683-1.448.857-1.819s.526-1.12.782-1.663.584-1.245.728-1.559.584-1.242.976-2.062.714-1.506.714-1.525.321-.705.714-1.525.832-1.747.976-2.062c.319-.695,1.065-2.279,1.749-3.716l.508-1.066h11.126v.464c0,.554-.1.623-1.009.722a10.621,10.621,0,0,0-3.582.964c-1.078.587-1.611,1.5-1.857,3.17-.142.966-.1,6.552.1,13.859.056,2,.173,6.679.261,10.4.246,10.4.379,12.682.8,13.67.795,1.871,1.663,2.37,5.078,2.921a4.03,4.03,0,0,0,2.2-.116c2.475-.758,3.4-1.8,4.976-5.62.294-.711.575-1.385.624-1.5s.215-.535.367-.936c.263-.69.565-1.47,1.352-3.482.743-1.9,1.128-2.9,1.467-3.794.194-.515.4-1.029.448-1.144.108-.236.474-1.181,1-2.578.2-.526.406-1.05.461-1.164s.341-.839.634-1.611.616-1.614.717-1.871c.641-1.632,1.224-3.138,1.672-4.314.283-.743.557-1.445.609-1.559s.212-.512.355-.884.407-1.05.587-1.507.558-1.44.84-2.183.559-1.445.615-1.559c.1-.211,1.055-2.679,1.319-3.417.286-.8.421-.973.819-1.047a1.242,1.242,0,0,1,.4-.038c.014.018.156.384.315.812s.351.92.427,1.091.381.943.677,1.715.619,1.614.719,1.871.421,1.1.714,1.871.579,1.5.634,1.611c.141.291,1.35,3.452,2.822,7.381.685,1.83,1.31,3.49,1.388,3.69s.476,1.276.884,2.391.805,2.191.883,2.391.875,2.329,1.771,4.73c2.524,6.762,3.164,8.154,4.256,9.244a6.7,6.7,0,0,0,2.5,1.392c.229.062.685.192,1.014.288l.6.175v.907H138.5c-8.159,0-7.548.05-7.548-.618,0-.262.055-.305.6-.465l1.1-.326a3.934,3.934,0,0,1,.647-.151,4.029,4.029,0,0,0,1.588-.811c.227-.259.241-.344.187-1.112a7.227,7.227,0,0,0-.264-1.455c-.384-1.161-1.134-3.276-1.418-4-.078-.2-.43-1.159-.782-2.131s-.7-1.908-.772-2.079-.259-.663-.414-1.092-.355-.955-.445-1.169l-.164-.39H117.463l-.217.6c-.274.755-1.32,3.908-1.456,4.392-.056.2-.267.9-.469,1.559a37.493,37.493,0,0,0-1.116,4.442,2.871,2.871,0,0,0,.365,2.264,5.1,5.1,0,0,0,2.553,1.192c1.183.275,1.7.443,1.678.548-.008.043-.015.242-.015.442v.364L102.908,87.1l-15.879-.026V86.036l.572-.078a19.112,19.112,0,0,0,2.894-.613,3.415,3.415,0,0,0,2.576-3.158c.183-1,.2-11.721.04-22.35-.055-3.6-.1-8.081-.1-9.954,0-2.879-.026-3.4-.151-3.4-.082,0-.274.269-.428.6S92,48,91.808,48.4s-.726,1.57-1.2,2.6-1.053,2.292-1.3,2.807-.548,1.169-.676,1.455c-.472,1.049-1.242,2.729-1.693,3.69-.254.543-.568,1.221-.7,1.507s-.386.847-.572,1.247c-.668,1.438-.968,2.088-1.224,2.651-.143.314-.406.888-.584,1.273s-.469,1.017-.646,1.4-.452.982-.611,1.325-.384.834-.5,1.091-.406.889-.645,1.4-.53,1.146-.646,1.4-.463,1-.77,1.65-.559,1.2-.559,1.218-.257.575-.572,1.234-.572,1.219-.572,1.243-.238.551-.529,1.17-.764,1.64-1.051,2.269-.719,1.565-.959,2.079-.666,1.438-.945,2.053l-.508,1.117h-.422c-.376,0-.438-.036-.569-.338-.081-.186-.35-.772-.6-1.3s-.449-.983-.449-1-.214-.5-.475-1.062l-.667-1.439c-.688-1.483-1.041-2.26-1.041-2.29s-.477-1.09-.936-2.076c-.834-1.793-1.143-2.467-1.143-2.5s-.191-.448-.425-.952S67.112,72.2,67,71.947s-.392-.856-.615-1.332-.4-.881-.4-.9-.164-.393-.364-.825c-1.122-2.428-1.123-2.43-1.644-3.594-.141-.314-.4-.876-.565-1.247-.618-1.349-.888-1.941-1.325-2.911-.245-.543-.584-1.292-.755-1.663s-.416-.91-.545-1.2-.44-.957-.689-1.491-.454-.987-.454-1.007-.191-.448-.425-.952-.52-1.126-.636-1.384c-.807-1.787-1.6-3.523-2.057-4.522-.185-.4-.376-.833-.425-.962s-.13-.234-.18-.234a13.136,13.136,0,0,0-.157,2.157c-.253,8.163-.384,12.2-.432,13.28-.475,10.7-.252,17.871.616,19.766a4.3,4.3,0,0,0,2.049,1.946,16.47,16.47,0,0,0,3.845,1.064l.61.069v1.117H45.28ZM130.118,69.4c0-.031-.685-1.867-1.521-4.08s-1.633-4.328-1.77-4.7c-1.053-2.868-2.674-7.068-2.726-7.067-.035,0-.757,1.861-1.6,4.132s-1.608,4.306-1.689,4.52l-.3.78c-.664,1.737-2.346,6.311-2.346,6.382,0,.049,2.69.089,5.977.089s5.977-.025,5.977-.056ZM147.79,86.669v-.455l1.169-.179c2.983-.456,4.107-1.069,4.66-2.541.483-1.285.489-1.522.474-19.136l-.015-16.581-2.755.025c-5.333.048-7.2.677-8.7,2.924a25.189,25.189,0,0,0-2.275,4.977c-.051.177-.98.177-.978,0,0-.071.07-1.089.154-2.261.336-4.714.472-6.648.537-7.615.066-.994.072-1.014.327-1.014.183,0,.433.183.842.616.972,1.028-.357.95,15.713.919,15.911-.031,14.24.075,15.382-.982a1.812,1.812,0,0,1,.853-.553h.256l.07,1.533c.088,1.914.33,5.734.49,7.7a5.508,5.508,0,0,1,.022,1.589,1.139,1.139,0,0,1-.462.158l-.363.059-.339-.92c-1.967-5.336-2.853-6.315-6.3-6.95a25.811,25.811,0,0,0-4.158-.19l-3.223-.017-.027,16.061c-.03,17.356-.008,18.229.5,19.595.563,1.5,1.764,2.143,4.9,2.609l1.221.181v.9H147.789Zm27.964-.012c0-.257.035-.468.078-.469a22.842,22.842,0,0,0,2.937-.618,2.913,2.913,0,0,0,1.8-1.281c.906-1.462.9-1.366.9-17.593,0-11.529-.024-13.924-.154-14.969-.329-2.65-1.018-3.493-3.3-4.04a22.238,22.238,0,0,0-2.209-.375,1,1,0,0,1-.058-.468v-.468h8.152c4.484,0,8.226.028,8.316.063.176.067.236.712.076.811a5.627,5.627,0,0,1-.858.166c-2.94.425-3.967,1.056-4.563,2.806-.377,1.108-.407,2.321-.412,16.6,0,8.772.034,14.25.1,14.762.237,1.84.6,2.628,1.494,3.229,1.05.706,2.369.9,5.726.834a11.848,11.848,0,0,0,4.851-.737,6.721,6.721,0,0,0,2.79-1.855,32.067,32.067,0,0,0,2.671-4.577c.327-.646.634-1.228.682-1.293.062-.083.215-.089.523-.02a3.3,3.3,0,0,1,.462.124c.027.027-.432,2.33-.8,4.017-.119.543-.261,1.2-.315,1.455a42.085,42.085,0,0,1-1.063,4.236c-.08.1-3,.13-13.966.13H175.753Zm29.523,0v-.465l.6-.164a11.726,11.726,0,0,0,2.864-1.124c.982-.628,1.914-2.01,2.816-4.176.214-.515.431-1.029.482-1.144s.309-.769.574-1.455c.51-1.321.879-2.269,1.639-4.21.258-.657.657-1.687.888-2.287l1-2.6c.319-.829.625-1.6.68-1.715s.34-.839.634-1.611.616-1.614.717-1.871.42-1.076.709-1.819.745-1.913,1.013-2.6.55-1.411.625-1.611.377-.972.67-1.715.764-1.96,1.046-2.7.556-1.445.609-1.559c.108-.235.47-1.169,1-2.578.2-.526.405-1.05.461-1.164s.268-.652.472-1.2a7.675,7.675,0,0,1,.466-1.083,1.663,1.663,0,0,1,.456-.22l.362-.124.383,1c.211.55.544,1.421.74,1.935s.4,1.029.452,1.144.261.652.463,1.2.408,1.081.457,1.2c.132.307.754,1.907,1.412,3.638.152.4.32.821.372.936s.405,1.027.784,2.027.78,2.053.892,2.339.242.637.288.78.133.377.194.52c.114.269,1.588,4.251,2.982,8.056.44,1.2.836,2.277.881,2.391l.242.624c.089.229.5,1.328.908,2.443s.811,2.163.89,2.329a1.533,1.533,0,0,1,.145.416,1.218,1.218,0,0,0,.134.374c.073.143.219.494.324.78a14.938,14.938,0,0,0,2.406,4.615c.789.852,1.639,1.278,3.663,1.836l.655.18-.031.427-.031.427L238.2,87.1l-7.459.027v-.46c0-.52-.1-.463,1.507-.9,1.5-.406,1.84-.545,2.248-.933a.926.926,0,0,0,.4-.906,17.677,17.677,0,0,0-1.246-4.344c-.353-.972-.826-2.282-1.05-2.911s-.451-1.237-.5-1.351-.388-1-.744-1.975-.693-1.826-.748-1.9c-.078-.1-1.548-.13-6.73-.13H217.25l-.307.806c-.312.819-1.187,3.438-1.432,4.288-.074.257-.283.959-.463,1.559-.894,2.972-1.08,3.842-1.086,5.058-.005,1.027,0,1.066.316,1.455a4.782,4.782,0,0,0,2.6,1.268c1.22.284,1.742.454,1.722.561-.008.043-.015.242-.015.442v.364H205.277v-.465Zm24.442-17.7c-.106-.272-.859-2.271-1.674-4.444s-1.641-4.363-1.836-4.867-.73-1.931-1.189-3.171c-1-2.7-1.122-2.987-1.228-2.866-.045.051-.328.771-.629,1.6s-.583,1.6-.628,1.715-.151.4-.236.624-.3.79-.47,1.247S220.968,61.1,220.3,62.9s-1.279,3.45-1.361,3.664a24.112,24.112,0,0,0-.981,2.757c0,.1,1.319.128,5.976.128h5.976Zm17.529,18.1a.987.987,0,0,1-.077-.46V86.22l1.065-.179a9.456,9.456,0,0,0,3.082-.95c.813-.538,1.26-1.477,1.481-3.113.2-1.47.206-28.8.009-30.355-.259-2.045-.817-3.043-1.986-3.55a11.33,11.33,0,0,0-2.331-.607c-.91-.115-.919-.122-.884-.608l.032-.433,8.42-.033c8.529-.033,10.226.017,12.111.356,4.825.869,7.428,3.182,8.056,7.159a7.29,7.29,0,0,1-.016,2.932,7.706,7.706,0,0,1-2.107,4.121,12.842,12.842,0,0,1-5.128,3.189,3.725,3.725,0,0,0-.805.309,5.115,5.115,0,0,0,1,.248,14.391,14.391,0,0,1,6.712,3.189,9.844,9.844,0,0,1,2.777,4.624,13.461,13.461,0,0,1,0,5.3,10.714,10.714,0,0,1-2.02,4.015c-2.453,2.941-6.129,4.557-11.591,5.094-1.363.134-17.68.256-17.8.133Zm18.686-1.645a8.79,8.79,0,0,0,3.119-1.283c2.208-1.427,3.466-3.646,3.853-6.8a10.112,10.112,0,0,0-2.853-8.837,9.914,9.914,0,0,0-4.661-2.425,18.656,18.656,0,0,0-5.226-.449l-2.235.032-.031,7.589c-.031,7.736.014,8.988.363,10.076.431,1.342,1.27,1.971,3.046,2.283a25.082,25.082,0,0,0,4.626-.188ZM264.27,64.146c2.913-.594,4.712-1.79,5.644-3.749a7.989,7.989,0,0,0,.8-4.252,9.514,9.514,0,0,0-.187-2.495,8.047,8.047,0,0,0-1.322-2.909,7.384,7.384,0,0,0-4.569-2.778,22.885,22.885,0,0,0-6.059-.008c-.724.328-.7,0-.7,8.585,0,4.223.035,7.715.078,7.76a51.988,51.988,0,0,0,6.315-.154Zm19.807-7.234a4.827,4.827,0,0,1-3.839-5.881,4.758,4.758,0,0,1,6.628-3.232,5.989,5.989,0,0,1,2.051,1.858,5.118,5.118,0,0,1,.52,3.75,4.907,4.907,0,0,1-3.545,3.457,3.633,3.633,0,0,1-1.815.049Zm1.555-.669a3.207,3.207,0,0,0,1.706-.939,4.274,4.274,0,0,0-.789-6.859,2.478,2.478,0,0,0-1.7-.352,3.023,3.023,0,0,0-2.608,1.031,3.805,3.805,0,0,0-1.126,2,3.466,3.466,0,0,0,.026,2.125,3.8,3.8,0,0,0,4.488,2.993Zm-3.058-1.435c-.033-.054.1-.194.3-.312l.364-.215V52.225a16.752,16.752,0,0,0-.08-2.18.916.916,0,0,0-.368-.234c-.58-.22-.161-.319,1.359-.319,1.321,0,1.578.028,1.961.213a1.31,1.31,0,0,1,.065,2.277c-.214.141-.4.264-.42.274a11,11,0,0,0,1.377,2.147,2.138,2.138,0,0,1,.369.431c0,.1-.639.073-1.03-.039a1.339,1.339,0,0,1-.522-.286,6.99,6.99,0,0,1-.839-1.368.973.973,0,0,0-.683-.636c-.246,0-.252.02-.252.832,0,.693.034.866.208,1.04a.692.692,0,0,0,.373.208c.091,0,.145.058.121.13a5.777,5.777,0,0,1-2.3.092Zm2.51-2.722a1.14,1.14,0,0,0,.627-1.29c-.076-.673-.341-.924-.984-.933l-.5-.007-.03,1.032a7.48,7.48,0,0,0,.023,1.17c.063.165.433.177.862.028Z" transform="translate(-33.87 168.375)"/></g></g></svg>