<svg xmlns="http://www.w3.org/2000/svg" width="256" height="132.916" viewBox="0 0 256 132.916"><g transform="translate(-0.318 -1.685)"><path d="M.332,122.774H8.78V89.307l13.193,29.179c1.494,3.507,3.641,4.807,7.8,4.807s6.176-1.3,7.72-4.807L50.62,89.307v33.467h8.514V89.307c0-3.248-1.3-4.811-4.03-5.656-6.434-1.949-10.723-.259-12.672,4.093L29.5,116.6,17.021,87.744c-1.885-4.352-6.24-6.042-12.738-4.093C1.618,84.5.319,86.057.319,89.307v33.467ZM66.166,95.545h8.514v18.392c-.064,1.039.325,3.379,4.952,3.442,2.4.066,18.326,0,18.455,0V95.414H106.6V125.5c0,7.408-9.176,9.031-13.453,9.1H66.375V128.95h26.84c5.459-.586,4.81-3.314,4.81-4.224v-2.211h-18c-8.384-.066-13.779-3.77-13.842-7.994V95.542ZM248.78,74.229c-5.2-.131-9.229.39-12.608,1.821-.973.393-2.534.393-2.663,1.626.52.517.583,1.363,1.039,2.08a15.176,15.176,0,0,0,3.379,3.962c1.366,1.041,2.731,2.08,4.158,2.99,2.534,1.559,5.394,2.469,7.863,4.029,1.43.91,2.859,2.08,4.29,3.056.728.52,1.17,1.366,2.08,1.69v-.2c-.454-.583-.586-1.427-1.039-2.08-.651-.648-1.3-1.235-1.952-1.883a30.753,30.753,0,0,0-6.758-6.563c-2.08-1.43-6.627-3.379-7.472-5.783l-.128-.131a26.56,26.56,0,0,0,4.483-1.041c2.211-.583,4.224-.454,6.5-1.039,1.041-.262,2.08-.586,3.121-.91v-.583c-1.17-1.17-2.014-2.73-3.248-3.834A86.637,86.637,0,0,0,239.1,63.444c-2.014-1.3-4.614-2.146-6.758-3.248-.782-.39-2.08-.586-2.534-1.235a26.014,26.014,0,0,1-2.666-5c-1.883-3.574-3.7-7.538-5.328-11.307-1.17-2.534-1.886-5.069-3.314-7.408C211.8,24.193,204.522,17.5,193.345,10.935c-2.4-1.365-5.263-1.952-8.3-2.665l-4.874-.262c-1.041-.454-2.08-1.69-2.99-2.275-3.7-2.339-13.258-7.408-15.989-.714-1.755,4.224,2.6,8.382,4.078,10.528a30.691,30.691,0,0,1,3.317,4.874c.437,1.1.583,2.275,1.038,3.445A77.811,77.811,0,0,0,173,32.576a32.876,32.876,0,0,0,2.4,4.03c.52.714,1.43,1.04,1.624,2.21-.91,1.3-.973,3.248-1.493,4.875-2.341,7.344-1.43,16.442,1.883,21.834,1.041,1.624,3.5,5.2,6.825,3.834,2.925-1.17,2.272-4.874,3.117-8.123.2-.779.066-1.3.454-1.821v.131l2.665,5.394a37.155,37.155,0,0,0,8.448,8.71c1.559,1.17,2.794,3.185,4.743,3.9v-.2h-.128a7.233,7.233,0,0,0-1.5-1.3,31.654,31.654,0,0,1-3.379-3.9,83.758,83.758,0,0,1-7.277-11.827c-1.041-2.014-1.952-4.224-2.794-6.238-.393-.781-.393-1.952-1.041-2.339-.976,1.427-2.4,2.666-3.121,4.419-1.235,2.794-1.363,6.238-1.818,9.813-.262.066-.146,0-.262.131-2.077-.519-2.794-2.665-3.573-4.483-1.949-4.614-2.275-12.022-.586-17.352.454-1.365,2.406-5.654,1.627-6.954-.393-1.235-1.69-1.949-2.406-2.925a26.257,26.257,0,0,1-2.338-4.158c-1.559-3.641-2.338-7.669-4.029-11.309a34.7,34.7,0,0,0-3.251-5c-1.235-1.755-2.6-2.99-3.573-5.069-.325-.714-.779-1.885-.259-2.666a1.035,1.035,0,0,1,.907-.845c.845-.714,3.251.2,4.1.583A33.3,33.3,0,0,1,175.4,9.179c.91.65,1.886,1.885,3.056,2.211h1.366c2.08.454,4.418.131,6.365.714a41.611,41.611,0,0,1,9.36,4.486,57.641,57.641,0,0,1,20.275,22.227c.779,1.494,1.1,2.859,1.821,4.419,1.366,3.185,3.056,6.434,4.418,9.555a42.845,42.845,0,0,0,4.614,8.71c.976,1.365,4.874,2.079,6.627,2.794a46.079,46.079,0,0,1,4.486,1.821c2.208,1.365,4.418,2.925,6.5,4.419,1.039.778,4.29,2.4,4.483,3.7ZM182.507,17.755a10.326,10.326,0,0,0-2.663.325v.131h.128a20.975,20.975,0,0,0,2.08,2.665l1.5,3.12.128-.131a3.665,3.665,0,0,0,1.366-3.248,14.475,14.475,0,0,1-.779-1.365c-.39-.65-1.235-.976-1.757-1.494Z" transform="translate(0 0)" fill="#00678c" fill-rule="evenodd"/><path d="M3.212,40.521H26.155A17.411,17.411,0,0,0,33.477,39c3.478-1.586,5.126-3.72,5.126-6.528V26.61c0-2.257-1.891-4.394-5.673-5.858a19.976,19.976,0,0,0-6.774-1.16H16.515c-3.234,0-4.759-.978-5.187-3.111a3.007,3.007,0,0,1-.06-.732v-3.6a2.757,2.757,0,0,1,.06-.67c.427-1.648,1.281-2.076,4.1-2.38H38.922V3.789H16.588a20.652,20.652,0,0,0-6.469.673c-4.7,1.463-6.774,3.783-6.774,7.869v4.64c0,3.6,4.028,6.651,10.862,7.382.732.062,1.525.062,2.318.062h8.239a3.7,3.7,0,0,1,.852.062c2.5.243,3.6.67,4.333,1.584a1.856,1.856,0,0,1,.611,1.466v4.636a2.712,2.712,0,0,1-1.1,1.891,5.693,5.693,0,0,1-3.419,1.1c-.3,0-.486.062-.793.062H3.212Zm85.06-9.212c0,5.43,4.1,8.479,12.268,9.092.793.062,1.525.12,2.318.12H123.6V35.214H102.675c-4.64,0-6.409-1.16-6.409-3.966V3.789h-8.01V31.31Zm-44.605.242V12.636c0-4.821,3.416-7.752,10.07-8.665.732-.062,1.463-.123,2.134-.123H71c.793,0,1.466.062,2.259.123,6.651.914,10.006,3.843,10.006,8.665V31.55c0,3.9-1.4,5.981-4.7,7.385l7.809,7.076H77.164l-6.346-5.734-6.409.367H55.867a18.683,18.683,0,0,1-4.638-.609c-5.06-1.406-7.563-4.089-7.563-8.485Zm8.6-.424a6.874,6.874,0,0,0,.185.793c.427,2.2,2.5,3.416,5.673,3.416h7.2l-6.589-5.981h9.212l5.8,5.249a3.814,3.814,0,0,0,2.015-2.564,3.438,3.438,0,0,0,.062-.793V13.123a2.952,2.952,0,0,0-.062-.732c-.427-2.073-2.5-3.232-5.613-3.232H58.127c-3.539,0-5.858,1.525-5.858,3.963Z" transform="translate(118.62 82.976)" fill="#ce8b2c" fill-rule="evenodd"/></g></svg>