<svg xmlns="http://www.w3.org/2000/svg" xmlns:xlink="http://www.w3.org/1999/xlink" width="256" height="156.787" viewBox="0 0 256 156.787"><defs><clipPath id="a"><path d="M220.208,226.319l-24.381,14.072a2.943,2.943,0,0,0-1.473,2.55V271.1a2.942,2.942,0,0,0,1.473,2.55l24.382,14.083a2.952,2.952,0,0,0,2.946,0l24.378-14.083A2.949,2.949,0,0,0,249,271.1V242.941a2.942,2.942,0,0,0-1.476-2.55l-24.375-14.072a2.964,2.964,0,0,0-2.951,0" transform="translate(-194.354 -225.925)"/></clipPath><linearGradient id="b" x1="-0.847" y1="-1.034" x2="-0.838" y2="-1.034" gradientUnits="objectBoundingBox"><stop offset="0.3" stop-color="#3e863d"/><stop offset="0.5" stop-color="#55934f"/><stop offset="0.8" stop-color="#5aad45"/></linearGradient><clipPath id="c"><path d="M195.4,272.954a2.951,2.951,0,0,0,.868.762L217.18,285.8l3.484,2a2.956,2.956,0,0,0,1.7.385,3.008,3.008,0,0,0,.579-.106l25.714-47.083a2.916,2.916,0,0,0-.685-.544l-15.964-9.219-8.439-4.855a3.079,3.079,0,0,0-.764-.307Zm0,0" transform="translate(-195.398 -226.069)"/></clipPath><linearGradient id="d" x1="-0.742" y1="-0.932" x2="-0.737" y2="-0.932" gradientUnits="objectBoundingBox"><stop offset="0.57" stop-color="#3e863d"/><stop offset="0.72" stop-color="#619857"/><stop offset="1" stop-color="#76ac64"/></linearGradient><clipPath id="e"><path d="M222.51,225.945a2.974,2.974,0,0,0-1.178.377l-24.311,14.032L223.236,288.1a2.923,2.923,0,0,0,1.047-.361l24.381-14.083a2.954,2.954,0,0,0,1.424-2.012l-26.724-45.654a3.061,3.061,0,0,0-.6-.059c-.081,0-.162,0-.243.012" transform="translate(-197.021 -225.934)"/></clipPath><linearGradient id="f" x1="-2.148" y1="-2.103" x2="-2.138" y2="-2.103" gradientUnits="objectBoundingBox"><stop offset="0.16" stop-color="#6bbf47"/><stop offset="0.38" stop-color="#79b461"/><stop offset="0.47" stop-color="#75ac64"/><stop offset="0.7" stop-color="#659e5a"/><stop offset="0.9" stop-color="#3e863d"/></linearGradient></defs><g transform="translate(0 0)"><path d="M198.267,225a4.866,4.866,0,0,1-2.425-.648l-7.718-4.569c-1.153-.645-.59-.873-.21-1a15.583,15.583,0,0,0,3.49-1.591.586.586,0,0,1,.575.041l5.929,3.519a.782.782,0,0,0,.716,0L221.743,207.4a.729.729,0,0,0,.353-.625V180.1a.742.742,0,0,0-.358-.637l-23.11-13.333a.711.711,0,0,0-.712,0L174.812,179.46a.737.737,0,0,0-.366.631v26.678a.712.712,0,0,0,.359.619l6.331,3.657c3.437,1.719,5.538-.307,5.538-2.344V182.371a.66.66,0,0,1,.671-.666h2.928a.662.662,0,0,1,.665.666v26.342c0,4.583-2.5,7.216-6.846,7.216-1.337,0-2.39,0-5.33-1.447l-6.065-3.5a4.888,4.888,0,0,1-2.425-4.219V180.091a4.858,4.858,0,0,1,2.425-4.213l23.142-13.351a5.069,5.069,0,0,1,4.861,0l23.113,13.356a4.877,4.877,0,0,1,2.425,4.213v26.678a4.891,4.891,0,0,1-2.425,4.213L200.7,224.338a4.859,4.859,0,0,1-2.436.648" transform="translate(-71.736 -68.211)" fill="#689f63"/><path d="M222.079,215.57c-10.116,0-12.237-4.643-12.237-8.538a.665.665,0,0,1,.67-.666H213.5a.669.669,0,0,1,.66.566c.451,3.043,1.794,4.578,7.911,4.578,4.873,0,6.944-1.1,6.944-3.685,0-1.487-.59-2.593-8.16-3.333-6.331-.625-10.243-2.02-10.243-7.083,0-4.664,3.935-7.442,10.527-7.442,7.4,0,11.071,2.569,11.534,8.09a.674.674,0,0,1-.179.515.688.688,0,0,1-.492.214h-3a.663.663,0,0,1-.648-.521c-.723-3.2-2.471-4.225-7.222-4.225-5.318,0-5.937,1.852-5.937,3.241,0,1.684.729,2.176,7.905,3.125,7.106.943,10.48,2.274,10.48,7.268,0,5.035-4.2,7.922-11.528,7.922M250.2,187.3h.775a.674.674,0,0,0,.758-.706c0-.683-.469-.683-.729-.683h-.8Zm-.943-2.187h1.719c.59,0,1.748,0,1.748,1.319a1.148,1.148,0,0,1-.943,1.227c.689.046.735.5.828,1.134a4.878,4.878,0,0,0,.26,1.319h-1.059c-.029-.231-.191-1.5-.191-1.574-.069-.284-.168-.422-.521-.422h-.874v2h-.966Zm-2.066,2.488a2.633,2.633,0,1,0-.006-.006m8.194.017a4.453,4.453,0,1,0-.006,0" transform="translate(-88.406 -77.165)" fill="#689f63"/><path d="M54.94,52.4a2.96,2.96,0,0,0-1.48-2.572l-24.511-14.1a2.862,2.862,0,0,0-1.347-.388h-.253a2.912,2.912,0,0,0-1.354.388l-24.51,14.1A2.983,2.983,0,0,0,0,52.4L.054,90.39a1.458,1.458,0,0,0,.735,1.279,1.4,1.4,0,0,0,1.47,0L16.83,83.324a2.989,2.989,0,0,0,1.481-2.569V63.009a2.952,2.952,0,0,1,1.479-2.564l6.2-3.573a2.943,2.943,0,0,1,1.481-.4,2.891,2.891,0,0,1,1.472.4l6.2,3.572a2.953,2.953,0,0,1,1.481,2.564V80.752a3,3,0,0,0,1.484,2.569l14.562,8.339a1.447,1.447,0,0,0,1.481,0,1.486,1.486,0,0,0,.734-1.279ZM170.6,72.179a.736.736,0,0,1-.37.64l-8.419,4.853a.742.742,0,0,1-.739,0l-8.42-4.853a.733.733,0,0,1-.37-.64v-9.72a.745.745,0,0,1,.365-.642l8.414-4.861a.748.748,0,0,1,.747,0l8.42,4.861a.738.738,0,0,1,.37.642ZM172.878.188a1.48,1.48,0,0,0-2.2,1.295V39.1a1.035,1.035,0,0,1-1.553.9l-6.14-3.536a2.956,2.956,0,0,0-2.958,0L135.5,50.609a2.954,2.954,0,0,0-1.481,2.558v28.31a2.964,2.964,0,0,0,1.481,2.564L160.024,98.2a2.973,2.973,0,0,0,2.961,0L187.5,84.035a2.967,2.967,0,0,0,1.481-2.564V10.916a2.967,2.967,0,0,0-1.522-2.587ZM254.528,62.2A2.961,2.961,0,0,0,256,59.645V52.783a2.962,2.962,0,0,0-1.474-2.561L230.163,36.079a2.959,2.959,0,0,0-2.969,0L202.68,50.228a2.955,2.955,0,0,0-1.481,2.564v28.3a2.971,2.971,0,0,0,1.493,2.575l24.358,13.883a2.953,2.953,0,0,0,2.905.017l14.734-8.189A1.478,1.478,0,0,0,244.7,86.8L220.035,72.647a1.469,1.469,0,0,1-.747-1.279V62.491a1.469,1.469,0,0,1,.741-1.282l7.674-4.427a1.463,1.463,0,0,1,1.476,0l7.679,4.427a1.476,1.476,0,0,1,.741,1.279v6.979a1.477,1.477,0,0,0,2.222,1.279Zm0,0" transform="translate(0 0)" fill="#333" fill-rule="evenodd"/><path d="M390.9,105.144a.562.562,0,0,1,.567,0l4.7,2.714a.568.568,0,0,1,.284.492v5.434a.568.568,0,0,1-.284.492l-4.7,2.714a.562.562,0,0,1-.567,0l-4.7-2.714a.566.566,0,0,1-.289-.492V108.35a.561.561,0,0,1,.284-.492Zm0,0" transform="translate(-162.585 -44.265)" fill="#689f63" fill-rule="evenodd"/><g transform="translate(67.157 35.827)" clip-path="url(#a)"><path d="M255.7,222.278,187,188.6l-35.226,71.86,68.7,33.676Zm0,0" transform="translate(-176.417 -210.201)" fill="url(#b)"/></g><g transform="translate(67.761 35.91)" clip-path="url(#c)"><path d="M144.07,229.5l48.51,65.655,64.155-47.4L208.222,182.1Zm0,0" transform="translate(-173.774 -207.545)" fill="url(#d)"/></g><g transform="translate(68.7 35.832)" clip-path="url(#e)"><path d="M197.02,225.934V288.1h53.057v-62.17Zm0,0" transform="translate(-197.021 -225.934)" fill="url(#f)"/></g></g></svg>