<svg xmlns="http://www.w3.org/2000/svg" width="256" height="114.073" viewBox="0 0 256 114.073"><g transform="translate(-6.834 -5.091)"><path d="M22.839,52.578H10.418V40.085h13.1c4.792,0,7.191,2.142,7.191,6.344q0,6.15-7.864,6.151m8.928-12.64q-2.552-2.284-7.146-2.284l-17.789.1V67.638h3.584l-.033-12.723H23.621q4.979,0,7.838-2.284a7.673,7.673,0,0,0,2.86-6.344,8.081,8.081,0,0,0-2.553-6.344ZM54.962,61.365a6.092,6.092,0,0,1-1.7,2.541c-1.606,1.57-4.055,2.349-7.376,2.349-2.974,0-5.235-.761-6.853-2.284a7.976,7.976,0,0,1-2.391-6.115,9.381,9.381,0,0,1,.626-3.541,6.948,6.948,0,0,1,1.813-2.608,9.738,9.738,0,0,1,6.805-2.253c6.425,0,9.6,2.8,9.6,8.4a10.3,10.3,0,0,1-.547,3.507m.65-11.024q-3.277-2.987-9.7-2.989-6.068,0-9.38,3.053a9.656,9.656,0,0,0-2.986,7.453A9.778,9.778,0,0,0,36.6,65.373,10.3,10.3,0,0,0,40.566,67.6a18.3,18.3,0,0,0,5.316.714c4.283,0,7.5-.985,9.756-2.955a9.569,9.569,0,0,0,2.986-7.484A9.563,9.563,0,0,0,55.6,50.36ZM82.71,62.227c0,4.045-3.6,6.034-10.813,6.034a31.552,31.552,0,0,1-5.568-.419,9.48,9.48,0,0,1-3.674-1.39,5.5,5.5,0,0,1-1.732-1.9,7.889,7.889,0,0,1-.833-2.986l3.331-.031a3.856,3.856,0,0,0,1.761,3.5q1.892,1.349,6.694,1.349,7.556,0,7.557-3.788,0-2.213-2.534-3.046-.514-.161-6.115-.849A38.532,38.532,0,0,1,63.8,57.458a4.281,4.281,0,0,1-2.984-4.269,4.807,4.807,0,0,1,2.665-4.495,13.348,13.348,0,0,1,3.293-.947,27.364,27.364,0,0,1,4.578-.338q10.408,0,10.408,6.532H78.576q0-4.59-7.317-4.592a12.375,12.375,0,0,0-5.551.952,3.048,3.048,0,0,0-1.832,2.855q0,1.8,2.47,2.6a50.538,50.538,0,0,0,6.644.964,22.839,22.839,0,0,1,6.387,1.19c2.2.857,3.331,2.308,3.331,4.364ZM95.883,67.7l-1.363.19-.852.064A8.879,8.879,0,0,1,88.944,67a3.675,3.675,0,0,1-1.428-3.331V50.037H83.542V48.031h3.95l.031-6.444h3.058v6.444h5.325V50.07l-5.325-.033V63.307a2.3,2.3,0,0,0,.785,2.046,5.123,5.123,0,0,0,2.808.564,2.3,2.3,0,0,0,.642-.024c.238-.038.588-.119,1.059-.243l.033,2.046Zm21.147-4.55a9.066,9.066,0,0,1-2.855,1.573,11.434,11.434,0,0,1-3.688.547c-6.4,0-9.589-2.617-9.589-7.924a7.178,7.178,0,0,1,2.451-5.773q2.449-2.084,6.912-2.084,4.49,0,6.817,2.1a7.212,7.212,0,0,1,2.327,5.63,7.514,7.514,0,0,1-2.375,5.935m5.432-15.134H119.4l-.033,3.372a20.152,20.152,0,0,0-2.889-2.6,13.743,13.743,0,0,0-6.644-1.411q-5.971,0-9.114,2.727-2.984,2.5-2.984,7.25a11,11,0,0,0,.754,4.188,8.317,8.317,0,0,0,2.2,3.127q3.152,2.631,8.9,2.632c4.607,0,7.852-1.261,9.8-3.807v3.491a6.485,6.485,0,0,1-2.1,5.168q-2.1,1.827-6.917,1.832c-3.017,0-5.168-.416-6.425-1.247a5.151,5.151,0,0,1-1.989-3.324H98.84a6.542,6.542,0,0,0,2.794,4.778q2.634,1.7,8.895,1.7,11.978,0,11.978-8.9V48ZM139,50.008a15.99,15.99,0,0,0-2.565-.224q-7.538,0-7.538,8.269v9.585h-3.022l-.033-19.614,3.058.031v3.5h.159a6.1,6.1,0,0,1,2.439-3.136,11.064,11.064,0,0,1,5.454-1.035H139v2.625Zm2.846,6.582a8.752,8.752,0,0,1,2.6-5.178,9.22,9.22,0,0,1,2.984-1.594,12.267,12.267,0,0,1,3.755-.531,9.8,9.8,0,0,1,6.658,2.237,6.619,6.619,0,0,1,2.606,5.068H141.869m18.877-6.051a9.8,9.8,0,0,0-3.983-2.382,17.967,17.967,0,0,0-5.556-.773q-5.943,0-9.218,2.76a9.314,9.314,0,0,0-3.277,7.519,9.542,9.542,0,0,0,3.146,7.548q3.4,3.084,9.6,3.084a17.932,17.932,0,0,0,4.573-.559,12.675,12.675,0,0,0,3.676-1.582,8.537,8.537,0,0,0,3.5-4.892h-3.331c-1.135,3.331-3.957,5.03-8.471,5.03-3.189,0-5.639-.819-7.376-2.46a7.24,7.24,0,0,1-2.213-5.463h21.8a10.414,10.414,0,0,0-2.922-7.852Z" transform="translate(0 43.267)" fill="#231f20"/><path d="M103.474,60.036q0,8.734-14.087,8.733-8.441,0-12.326-3.01c-2.142-1.649-3.177-4.164-3.177-7.543h3.807q0,8.156,11.719,8.155,5.618,0,8.124-1.666a5.245,5.245,0,0,0,2.142-4.616,4.416,4.416,0,0,0-2.891-4.364,45.656,45.656,0,0,0-8-1.7q-8-1.221-10.37-2.437a6.322,6.322,0,0,1-3.436-6.1,6.643,6.643,0,0,1,2.922-5.968q3.141-2.149,10.789-2.149,13.813,0,13.808,9.173H98.668q0-6.871-10.232-6.87-5.14,0-7.519,1.38a4.856,4.856,0,0,0-2.249,4.335A4.273,4.273,0,0,0,81.559,49.6q1.535.707,9.056,1.961,7.067,1.06,9.518,2.475,3.373,1.735,3.372,6.006Zm30.715,2.974a14.753,14.753,0,0,1-4.788,2.548,19.659,19.659,0,0,1-5.977.849c-4.521,0-8.138-1.19-10.912-3.641a12.273,12.273,0,0,1-4.164-9.694q0-6.318,4.128-9.839c2.753-2.351,6.425-3.526,10.946-3.526q6.91,0,10.862,3.688a11.285,11.285,0,0,1,3.086,4.2,14.087,14.087,0,0,1,1,5.48,12.529,12.529,0,0,1-4.178,9.937M136.2,65a13.167,13.167,0,0,0,4.371-5.052,15.723,15.723,0,0,0,1.416-6.848,14.427,14.427,0,0,0-4.626-11.184,15.662,15.662,0,0,0-5.949-3.431,26.076,26.076,0,0,0-8-1.123q-8.734,0-13.713,4.236t-4.978,11.484a14.357,14.357,0,0,0,5,11.386c3.324,2.886,7.924,4.331,13.725,4.331a33.885,33.885,0,0,0,5.939-.459,14.432,14.432,0,0,0,4.3-1.413l5.587,3.871,2.332-2.142L136.2,64.981Zm34.1,3.053H144.464V38.126l3.553-.064V65.545h22.32l-.033,2.5Z" transform="translate(92.498 42.855)" fill="#367faf"/><path d="M96.579,56.832c.469-3.9.328-4.473,3.236-3.841l.714.064a16.784,16.784,0,0,0,6.877-1.156c3.7-1.713,5.887-4.578,2.244-3.826-8.314,1.713-8.885-1.1-8.885-1.1,8.78-13.025,12.445-29.561,9.28-33.606C101.407,2.327,86.45,7.55,86.2,7.686l-.079.014a29.466,29.466,0,0,0-5.544-.578,13.806,13.806,0,0,0-8.8,2.629S45.1-1.242,46.314,23.576c.262,5.278,7.567,39.943,16.276,29.473,3.184-3.831,6.258-7.067,6.258-7.067a8.033,8.033,0,0,0,5.275,1.347l.148-.126a5.782,5.782,0,0,0,.059,1.49c-2.244,2.506-1.585,2.951-6.068,3.871-4.538.935-1.873,2.6-.131,3.036,2.111.528,7,1.275,10.291-3.343l-.131.528c.88.7.821,5.061.945,8.174s.333,6.02.968,7.733,1.38,6.125,7.281,4.861c4.926-1.057,8.695-2.575,9.037-16.711" transform="translate(54.408 0.058)" fill="#231f20" stroke="#231f20" stroke-width="2.598"/><path d="M109.659,48.075c-8.314,1.713-8.885-1.1-8.885-1.1,8.78-13.025,12.445-29.561,9.28-33.608-8.638-11.041-23.6-5.818-23.843-5.682l-.081.014a29.466,29.466,0,0,0-5.544-.578,13.806,13.806,0,0,0-8.8,2.629S45.1-1.243,46.321,23.575c.262,5.283,7.567,39.943,16.276,29.473,3.184-3.831,6.258-7.067,6.258-7.067a8.066,8.066,0,0,0,5.273,1.347l.15-.126a5.81,5.81,0,0,0,.059,1.49c-2.244,2.506-1.585,2.951-6.068,3.871-4.538.935-1.873,2.6-.131,3.036,2.111.528,7,1.275,10.291-3.343l-.131.528c.88.7,1.5,4.581,1.392,8.09s-.171,5.925.523,7.81,1.38,6.125,7.281,4.861c4.926-1.057,7.481-3.793,7.836-8.357.252-3.246.823-2.765.857-5.663l.457-1.373c.528-4.4.083-5.818,3.117-5.156l.714.064a16.777,16.777,0,0,0,6.877-1.156c3.7-1.713,5.887-4.578,2.244-3.826Z" transform="translate(54.418 0.057)" fill="#417ba2"/><g transform="translate(100.702 6.292)"><path d="M78.828,50.654c-.228,8.186.057,16.426.857,18.429s2.515,5.9,8.414,4.635c4.926-1.057,6.72-3.1,7.5-7.614l1.82-14.427M71.785,9.624s-26.7-10.912-25.461,13.9C46.562,28.807,53.891,63.47,62.6,53c3.184-3.807,6.061-6.829,6.061-6.829M86.181,7.632c-.952.29,14.848-5.766,23.814,5.711,3.165,4.045-.476,20.583-9.28,33.608" transform="translate(-46.282 -6.292)" fill="none" stroke="#fff" stroke-linecap="round" stroke-linejoin="round" stroke-width="0.866"/><path d="M89.887,46.477s.571,2.815,8.887,1.1c3.641-.752,1.428,2.111-2.244,3.826-3.032,1.4-9.827,1.768-9.942-.176-.286-5.021,3.579-3.493,3.3-4.75-.252-1.133-1.98-2.244-3.122-5.014-1-2.42-13.682-20.968,3.522-18.213C90.917,23.12,85.8,6.887,69.7,6.623s-15.567,19.8-15.567,19.8" transform="translate(-35.456 -5.839)" fill="none" stroke="#fff" stroke-linecap="round" stroke-linejoin="bevel" stroke-width="0.866"/><g transform="translate(18.396 17.477)"><path d="M63.038,24.623c-2.244,2.506-1.585,2.951-6.068,3.871-4.538.935-1.873,2.6-.131,3.036,2.111.528,7,1.275,10.291-3.343,1-1.4,0-3.65-1.385-4.224a2.041,2.041,0,0,0-2.7.659Z" transform="translate(-53.396 0.252)" fill="none" stroke="#fff" stroke-linejoin="round" stroke-width="0.866"/><path d="M63.509,38.468c-.226-1.475.485-3.227,1.244-5.283,1.142-3.079,3.807-6.158,1.673-15.924-1.57-7.277-12.131-1.516-12.136-.528a49.545,49.545,0,0,1-.176,9.677c-.857,6.1,3.879,11.262,9.335,10.732" transform="translate(-54.014 -13.636)" fill="none" stroke="#fff" stroke-linecap="round" stroke-linejoin="round" stroke-width="0.866"/></g></g><g transform="translate(126.079 25.605)"><path d="M56.949,15.129c-.048.338.619,1.237,1.482,1.356a1.6,1.6,0,0,0,1.651-.918c.045-.336-.619-.709-1.485-.833s-1.606.055-1.651.393Z" transform="translate(-56.947 -14.013)" fill="#fff" stroke="#fff" stroke-width="0.289"/><path d="M69.842,14.836c.048.338-.619,1.237-1.482,1.356a1.605,1.605,0,0,1-1.654-.918c-.048-.336.619-.709,1.485-.828s1.606.055,1.654.393Z" transform="translate(-43.488 -14.408)" fill="#fff" stroke="#fff" stroke-width="0.144"/></g><path d="M70.395,13.608c.143,2.641-.571,4.445-.659,7.258-.133,4.093,1.951,8.773-1.19,13.461" transform="translate(85.133 10.093)" fill="none" stroke="#fff" stroke-linecap="round" stroke-linejoin="round" stroke-width="0.866"/></g></svg>