<svg xmlns="http://www.w3.org/2000/svg" xmlns:xlink="http://www.w3.org/1999/xlink" width="256" height="254.666" viewBox="0 0 256 254.666"><defs><linearGradient id="a" x1="0.13" y1="0.117" x2="0.796" y2="0.785" gradientUnits="objectBoundingBox"><stop offset="0" stop-color="#387eb8"/><stop offset="1" stop-color="#366994"/></linearGradient><linearGradient id="b" x1="0.191" y1="0.203" x2="0.907" y2="0.888" gradientUnits="objectBoundingBox"><stop offset="0" stop-color="#ffe052"/><stop offset="1" stop-color="#ffc331"/></linearGradient></defs><g transform="translate(-473.361 -251.725)"><g transform="translate(473.361 251.725)"><path d="M172.014,67.469c-64.988,0-60.93,28.183-60.93,28.183l.072,29.2h62.017v8.766H86.524S44.938,128.9,44.938,194.473s36.3,63.248,36.3,63.248H102.9V227.292S101.729,191,138.615,191h61.51s34.558.559,34.558-33.4V101.448S239.929,67.469,172.014,67.469ZM137.818,87.1A11.157,11.157,0,1,1,126.661,98.26,11.147,11.147,0,0,1,137.818,87.1Z" transform="translate(-44.938 -67.469)" fill="url(#a)"/><path d="M136.237,285.511c64.989,0,60.93-28.182,60.93-28.182l-.072-29.2H135.078v-8.766h86.65s41.587,4.716,41.587-60.858-36.3-63.25-36.3-63.25H205.355v30.428s1.166,36.3-35.719,36.3H108.127s-34.559-.559-34.559,33.4v56.149S68.321,285.511,136.237,285.511Zm34.2-19.634a11.157,11.157,0,1,1,11.158-11.156A11.146,11.146,0,0,1,170.433,265.877Z" transform="translate(-7.315 -30.845)" fill="url(#b)"/></g></g></svg>