<svg xmlns="http://www.w3.org/2000/svg" xmlns:xlink="http://www.w3.org/1999/xlink" width="252" height="194.326" viewBox="0 0 252 194.326"><defs><linearGradient id="a" x2="1" y2="1" gradientUnits="objectBoundingBox"><stop offset="0" stop-color="#cbced0"/><stop offset="1" stop-color="#84838b"/></linearGradient><linearGradient id="b" x2="1" y2="1" gradientUnits="objectBoundingBox"><stop offset="0" stop-color="#276dc3"/><stop offset="1" stop-color="#165caa"/></linearGradient></defs><g transform="translate(-0.906 -3)"><path d="M126.906,171.772c-69.588,0-126-37.781-126-84.386S57.318,3,126.906,3s126,37.781,126,84.386S196.494,171.772,126.906,171.772Zm19.287-135.78c-52.893,0-95.771,25.829-95.771,57.69s42.878,57.69,95.771,57.69,91.926-17.658,91.926-57.69S199.085,35.992,146.192,35.992Z" transform="translate(0 0)" fill-rule="evenodd" fill="url(#a)"/><path d="M386.066,231.241a94.9,94.9,0,0,1,12.057,4.543,23.323,23.323,0,0,1,6.116,4.368,16.514,16.514,0,0,1,2.8,4.019l30.054,50.673-48.576.022L365.8,252.209s-4.651-7.992-7.514-10.309c-2.388-1.933-3.406-2.621-5.766-2.621H340.976l.009,55.556L298,294.853V152.938h86.319s39.315.709,39.315,38.114S386.066,231.241,386.066,231.241Zm-18.7-47.519-26.023-.017-.013,24.131,26.035-.008s12.057-.037,12.057-12.275C379.426,183.068,367.37,183.721,367.37,183.721Z" transform="translate(-193.269 -97.539)" fill-rule="evenodd" fill="url(#b)"/></g></svg>