<svg xmlns="http://www.w3.org/2000/svg" width="287.465" height="256" viewBox="0 0 287.465 256"><g transform="translate(-175.7 -78)"><path d="M463.166,206.029c0-19.043-23.847-37.09-60.411-48.282,8.438-37.266,4.687-66.915-11.836-76.407a25.691,25.691,0,0,0-13.125-3.281V91.125a13.569,13.569,0,0,1,6.68,1.524c7.969,4.57,11.426,21.973,8.73,44.356-.644,5.508-1.7,11.309-2.988,17.227a283.962,283.962,0,0,0-37.208-6.387,285.893,285.893,0,0,0-24.375-29.3c19.1-17.754,37.032-27.481,49.219-27.481V78c-16.113,0-37.207,11.485-58.536,31.407-21.328-19.8-42.423-31.172-58.536-31.172V91.3c12.129,0,30.118,9.668,49.22,27.305a276.832,276.832,0,0,0-24.2,29.239,273.65,273.65,0,0,0-37.266,6.445c-1.347-5.859-2.344-11.543-3.047-16.992-2.754-22.383.645-39.786,8.555-44.415a13.041,13.041,0,0,1,6.739-1.523V78.293a26.127,26.127,0,0,0-13.243,3.281c-16.465,9.492-20.157,39.083-11.661,76.232-36.446,11.25-60.177,29.239-60.177,48.223,0,19.043,23.848,37.091,60.411,48.282-8.437,37.266-4.687,66.915,11.836,76.407A25.761,25.761,0,0,0,261.132,334c16.113,0,37.207-11.484,58.536-31.407C341,322.4,362.09,333.766,378.2,333.766a26.127,26.127,0,0,0,13.243-3.281c16.465-9.492,20.156-39.083,11.66-76.232,36.329-11.191,60.059-29.238,60.059-48.223Zm-76.29-39.082c-2.168,7.559-4.863,15.352-7.91,23.145-2.4-4.688-4.922-9.375-7.676-14.063-2.7-4.688-5.566-9.258-8.438-13.711C371.172,163.548,379.2,165.072,386.876,166.947Zm-26.836,62.4c-4.57,7.91-9.258,15.41-14.121,22.383-8.73.762-17.579,1.172-26.485,1.172-8.848,0-17.7-.41-26.368-1.114q-7.295-10.459-14.18-22.266c-4.453-7.676-8.5-15.469-12.188-23.321,3.633-7.852,7.735-15.7,12.129-23.379,4.57-7.91,9.258-15.41,14.121-22.383,8.731-.762,17.578-1.172,26.485-1.172,8.848,0,17.7.41,26.368,1.113q7.3,10.459,14.18,22.266,6.68,11.514,12.188,23.321C368.477,213.822,364.434,221.674,360.039,229.35Zm18.926-7.617c3.164,7.852,5.859,15.7,8.086,23.321-7.676,1.875-15.762,3.457-24.141,4.688,2.871-4.512,5.742-9.141,8.438-13.887C374.044,231.167,376.563,226.42,378.965,221.733Zm-59.415,62.52a241.538,241.538,0,0,1-16.289-18.75c5.274.234,10.664.411,16.114.411,5.508,0,10.957-.117,16.289-.411A228.617,228.617,0,0,1,319.55,284.253Zm-43.594-34.512c-8.321-1.231-16.348-2.754-24.024-4.629,2.168-7.558,4.864-15.352,7.91-23.145,2.4,4.688,4.922,9.375,7.676,14.063S273.085,245.288,275.956,249.741Zm43.3-121.936a241.616,241.616,0,0,1,16.289,18.75c-5.274-.234-10.664-.41-16.114-.41-5.508,0-10.957.117-16.289.41A228.711,228.711,0,0,1,319.257,127.806ZM275.9,162.318c-2.872,4.512-5.742,9.141-8.438,13.887-2.7,4.688-5.216,9.375-7.618,14.063-3.164-7.852-5.859-15.7-8.086-23.321C259.432,165.13,267.518,163.548,275.9,162.318Zm-53.029,73.361c-20.742-8.848-34.161-20.45-34.161-29.649s13.418-20.86,34.161-29.649c5.039-2.168,10.547-4.1,16.231-5.918a281.419,281.419,0,0,0,13.184,35.684,277.426,277.426,0,0,0-13.008,35.509C233.474,239.838,227.967,237.846,222.869,235.678Zm31.524,83.732c-7.969-4.57-11.426-21.973-8.73-44.356.644-5.508,1.7-11.309,2.988-17.227a283.977,283.977,0,0,0,37.208,6.386,285.673,285.673,0,0,0,24.375,29.3c-19.1,17.755-37.032,27.481-49.22,27.481A13.985,13.985,0,0,1,254.393,319.41ZM393.38,274.761c2.754,22.383-.645,39.786-8.555,44.415a13.041,13.041,0,0,1-6.739,1.524c-12.129,0-30.118-9.668-49.22-27.305a276.81,276.81,0,0,0,24.2-29.238,273.67,273.67,0,0,0,37.266-6.445A164.026,164.026,0,0,1,393.38,274.761Zm22.559-39.083c-5.039,2.168-10.547,4.1-16.23,5.918a281.478,281.478,0,0,0-13.184-35.684A277.432,277.432,0,0,0,399.532,170.4c5.8,1.816,11.309,3.809,16.466,5.977,20.742,8.848,34.161,20.449,34.161,29.649C450.1,215.229,436.681,226.889,415.938,235.678Z" transform="translate(0 0)" fill="#61dafb"/><circle cx="26.778" cy="26.778" r="26.778" transform="translate(292.597 179.252)" fill="#61dafb"/></g></svg>