<svg xmlns="http://www.w3.org/2000/svg" width="256" height="256" viewBox="0 0 256 256"><g transform="translate(-177.829 -406.829)"><g transform="translate(178.057 407.057)" fill="#fff" stroke="#707070" stroke-width="1"><rect width="255.769" height="255.769" stroke="none"/><rect x="0.5" y="0.5" width="254.769" height="254.769" fill="none"/></g><path d="M0,128V256H256V0H0Zm206.3-10.2a31.882,31.882,0,0,1,16.011,9.224c2.36,2.52,5.852,7.112,6.136,8.208.08.32-11.052,7.8-17.8,11.988-.24.16-1.22-.892-2.32-2.52-3.292-4.8-6.744-6.868-12.028-7.232-7.76-.528-12.8,3.536-12.72,10.32a9.386,9.386,0,0,0,1.1,4.8c1.708,3.536,4.88,5.648,14.832,9.96,18.327,7.88,26.167,13.08,31.039,20.479,5.44,8.248,6.664,21.415,2.968,31.207-4.064,10.648-14.14,17.879-28.319,20.279-4.388.772-14.792.652-19.5-.2-10.28-1.828-20.031-6.908-26.047-13.572-2.36-2.6-6.948-9.388-6.664-9.88a19.44,19.44,0,0,1,2.36-1.5l9.508-5.48,7.36-4.268,1.544,2.28c2.152,3.292,6.868,7.8,9.712,9.3,8.168,4.308,19.383,3.7,24.907-1.26a11.129,11.129,0,0,0,1.424-14.18c-1.992-2.84-6.056-5.24-17.6-10.24-13.208-5.688-18.9-9.224-24.1-14.832a33.778,33.778,0,0,1-7.032-12.8c-.976-3.616-1.22-12.68-.448-16.335,2.72-12.8,12.352-21.659,26.251-24.3,4.512-.852,15-.528,19.423.568Zm-60.1,10.68.08,10.48H112.964v94.677H89.4V138.962H56.078v-10.28l.28-10.56c.12-.16,20.4-.24,44.983-.2l44.739.12Z" transform="translate(177.829 406.831)" fill="#007acc"/></g></svg>